<svg xmlns="http://www.w3.org/2000/svg" width="43.649" height="62.577" viewBox="0 0 43.649 62.577">
  <g id="Group_1" data-name="Group 1" transform="translate(-358.013 -240.81)">
    <path id="Path_24" data-name="Path 24" d="M462.971,353.642c0,17.281-9.77,23.314-21.824,23.314-.279,0-.558,0-.836-.011-.558-.013-1.113-.04-1.659-.08-10.879-.809-19.329-7.153-19.329-23.223,0-16.628,20.211-37.613,21.734-39.17v0h0c.058-.061.088-.091.088-.091S462.971,336.363,462.971,353.642Z" transform="translate(-61.309 -73.569)" fill="#6cb70b"/>
    <path id="Path_25" data-name="Path 25" d="M499.138,355.179l17.1-7.982-17.147,8.859-.043.916c-1.2-.009-2.384-.027-3.555-.055l1.842-11.768-.013-.092.03-.016.176-1.113-17.19-8.88,17.242,8.046.043.236,1.39-8.892L484.3,325.262l14.9,7.617,1.45-18.436,0-.063v.062l-.241,14.537,14.651-5.763-14.711,7.016-.387,7.962,13.682-7.641-13.738,8.813-.215,4.426,19.854-10.636-19.932,12.18Z" transform="translate(-118.787 -53.966)" fill="#3f3d56"/>
  </g>
</svg>
